<mxfile host="Electron" agent="Mozilla/5.0 (Windows NT 10.0; Win64; x64) AppleWebKit/537.36 (KHTML, like Gecko) draw.io/24.7.8 Chrome/128.0.6613.36 Electron/32.0.1 Safari/537.36" version="24.7.8">
  <diagram id="C5RBs43oDa-KdzZeNtuy" name="Page-1">
    <mxGraphModel dx="1034" dy="511" grid="1" gridSize="10" guides="1" tooltips="1" connect="1" arrows="1" fold="1" page="1" pageScale="1" pageWidth="827" pageHeight="1169" math="0" shadow="0">
      <root>
        <mxCell id="WIyWlLk6GJQsqaUBKTNV-0" />
        <mxCell id="WIyWlLk6GJQsqaUBKTNV-1" parent="WIyWlLk6GJQsqaUBKTNV-0" />
        <mxCell id="erJbwYKWZJgMKCV-Vp8i-8" value="Main" style="swimlane;fontStyle=0;childLayout=stackLayout;horizontal=1;startSize=30;horizontalStack=0;resizeParent=1;resizeParentMax=0;resizeLast=0;collapsible=1;marginBottom=0;whiteSpace=wrap;html=1;" parent="WIyWlLk6GJQsqaUBKTNV-1" vertex="1">
          <mxGeometry x="620" y="590" width="160" height="90" as="geometry" />
        </mxCell>
        <mxCell id="erJbwYKWZJgMKCV-Vp8i-9" value="- userInput: Scanner" style="text;strokeColor=none;fillColor=none;align=left;verticalAlign=middle;spacingLeft=4;spacingRight=4;overflow=hidden;points=[[0,0.5],[1,0.5]];portConstraint=eastwest;rotatable=0;whiteSpace=wrap;html=1;" parent="erJbwYKWZJgMKCV-Vp8i-8" vertex="1">
          <mxGeometry y="30" width="160" height="30" as="geometry" />
        </mxCell>
        <mxCell id="erJbwYKWZJgMKCV-Vp8i-10" value="+ main(args: String[]): void" style="text;strokeColor=none;fillColor=none;align=left;verticalAlign=middle;spacingLeft=4;spacingRight=4;overflow=hidden;points=[[0,0.5],[1,0.5]];portConstraint=eastwest;rotatable=0;whiteSpace=wrap;html=1;" parent="erJbwYKWZJgMKCV-Vp8i-8" vertex="1">
          <mxGeometry y="60" width="160" height="30" as="geometry" />
        </mxCell>
        <mxCell id="erJbwYKWZJgMKCV-Vp8i-12" value="Haus" style="swimlane;fontStyle=0;childLayout=stackLayout;horizontal=1;startSize=30;horizontalStack=0;resizeParent=1;resizeParentMax=0;resizeLast=0;collapsible=1;marginBottom=0;whiteSpace=wrap;html=1;" parent="WIyWlLk6GJQsqaUBKTNV-1" vertex="1">
          <mxGeometry x="640" y="340" width="140" height="120" as="geometry" />
        </mxCell>
        <mxCell id="erJbwYKWZJgMKCV-Vp8i-13" value="- raeume: List&amp;lt;Raum&amp;gt;" style="text;strokeColor=none;fillColor=none;align=left;verticalAlign=middle;spacingLeft=4;spacingRight=4;overflow=hidden;points=[[0,0.5],[1,0.5]];portConstraint=eastwest;rotatable=0;whiteSpace=wrap;html=1;" parent="erJbwYKWZJgMKCV-Vp8i-12" vertex="1">
          <mxGeometry y="30" width="140" height="30" as="geometry" />
        </mxCell>
        <mxCell id="erJbwYKWZJgMKCV-Vp8i-14" value="+ addRaeume(): void" style="text;strokeColor=none;fillColor=none;align=left;verticalAlign=middle;spacingLeft=4;spacingRight=4;overflow=hidden;points=[[0,0.5],[1,0.5]];portConstraint=eastwest;rotatable=0;whiteSpace=wrap;html=1;" parent="erJbwYKWZJgMKCV-Vp8i-12" vertex="1">
          <mxGeometry y="60" width="140" height="30" as="geometry" />
        </mxCell>
        <mxCell id="erJbwYKWZJgMKCV-Vp8i-15" value="+ getRaeume(): List&amp;lt;Raum&amp;gt;" style="text;strokeColor=none;fillColor=none;align=left;verticalAlign=middle;spacingLeft=4;spacingRight=4;overflow=hidden;points=[[0,0.5],[1,0.5]];portConstraint=eastwest;rotatable=0;whiteSpace=wrap;html=1;" parent="erJbwYKWZJgMKCV-Vp8i-12" vertex="1">
          <mxGeometry y="90" width="140" height="30" as="geometry" />
        </mxCell>
        <mxCell id="erJbwYKWZJgMKCV-Vp8i-16" value="Raum" style="swimlane;fontStyle=0;childLayout=stackLayout;horizontal=1;startSize=30;horizontalStack=0;resizeParent=1;resizeParentMax=0;resizeLast=0;collapsible=1;marginBottom=0;whiteSpace=wrap;html=1;" parent="WIyWlLk6GJQsqaUBKTNV-1" vertex="1">
          <mxGeometry x="640" y="170" width="140" height="120" as="geometry" />
        </mxCell>
        <mxCell id="erJbwYKWZJgMKCV-Vp8i-17" value="- heizungen: List&amp;lt;Heizung&amp;gt;" style="text;strokeColor=none;fillColor=none;align=left;verticalAlign=middle;spacingLeft=4;spacingRight=4;overflow=hidden;points=[[0,0.5],[1,0.5]];portConstraint=eastwest;rotatable=0;whiteSpace=wrap;html=1;" parent="erJbwYKWZJgMKCV-Vp8i-16" vertex="1">
          <mxGeometry y="30" width="140" height="30" as="geometry" />
        </mxCell>
        <mxCell id="erJbwYKWZJgMKCV-Vp8i-18" value="+ addHeizung(): void" style="text;strokeColor=none;fillColor=none;align=left;verticalAlign=middle;spacingLeft=4;spacingRight=4;overflow=hidden;points=[[0,0.5],[1,0.5]];portConstraint=eastwest;rotatable=0;whiteSpace=wrap;html=1;" parent="erJbwYKWZJgMKCV-Vp8i-16" vertex="1">
          <mxGeometry y="60" width="140" height="30" as="geometry" />
        </mxCell>
        <mxCell id="pvwQ3aP5tafH-razuLtO-11" value="" style="endArrow=none;html=1;rounded=0;exitX=-0.005;exitY=0.022;exitDx=0;exitDy=0;exitPerimeter=0;" edge="1" parent="erJbwYKWZJgMKCV-Vp8i-16">
          <mxGeometry width="50" height="50" relative="1" as="geometry">
            <mxPoint x="0.2999999999999545" y="63.65999999999997" as="sourcePoint" />
            <mxPoint x="141" y="63" as="targetPoint" />
          </mxGeometry>
        </mxCell>
        <mxCell id="erJbwYKWZJgMKCV-Vp8i-19" value="+ getHeizungen(): List&amp;lt;Heizung&amp;gt;" style="text;strokeColor=none;fillColor=none;align=left;verticalAlign=middle;spacingLeft=4;spacingRight=4;overflow=hidden;points=[[0,0.5],[1,0.5]];portConstraint=eastwest;rotatable=0;whiteSpace=wrap;html=1;" parent="erJbwYKWZJgMKCV-Vp8i-16" vertex="1">
          <mxGeometry y="90" width="140" height="30" as="geometry" />
        </mxCell>
        <mxCell id="pvwQ3aP5tafH-razuLtO-0" value="" style="endArrow=classic;html=1;rounded=0;entryX=-0.01;entryY=0.128;entryDx=0;entryDy=0;exitX=1.003;exitY=0.044;exitDx=0;exitDy=0;exitPerimeter=0;entryPerimeter=0;" edge="1" parent="WIyWlLk6GJQsqaUBKTNV-1" source="erJbwYKWZJgMKCV-Vp8i-0" target="erJbwYKWZJgMKCV-Vp8i-16">
          <mxGeometry width="50" height="50" relative="1" as="geometry">
            <mxPoint x="170" y="490" as="sourcePoint" />
            <mxPoint x="220" y="440" as="targetPoint" />
          </mxGeometry>
        </mxCell>
        <mxCell id="pvwQ3aP5tafH-razuLtO-1" value="" style="endArrow=classic;html=1;rounded=0;exitX=0.5;exitY=1;exitDx=0;exitDy=0;exitPerimeter=0;entryX=0.5;entryY=0;entryDx=0;entryDy=0;" edge="1" parent="WIyWlLk6GJQsqaUBKTNV-1" source="erJbwYKWZJgMKCV-Vp8i-19" target="erJbwYKWZJgMKCV-Vp8i-12">
          <mxGeometry width="50" height="50" relative="1" as="geometry">
            <mxPoint x="610" y="500" as="sourcePoint" />
            <mxPoint x="660" y="450" as="targetPoint" />
          </mxGeometry>
        </mxCell>
        <mxCell id="pvwQ3aP5tafH-razuLtO-2" value="*" style="text;html=1;align=center;verticalAlign=middle;whiteSpace=wrap;rounded=0;" vertex="1" parent="WIyWlLk6GJQsqaUBKTNV-1">
          <mxGeometry x="440" y="199" width="60" height="30" as="geometry" />
        </mxCell>
        <mxCell id="pvwQ3aP5tafH-razuLtO-4" value="*" style="text;html=1;align=center;verticalAlign=middle;whiteSpace=wrap;rounded=0;" vertex="1" parent="WIyWlLk6GJQsqaUBKTNV-1">
          <mxGeometry x="694" y="287" width="60" height="30" as="geometry" />
        </mxCell>
        <mxCell id="pvwQ3aP5tafH-razuLtO-5" value="1" style="text;html=1;align=center;verticalAlign=middle;whiteSpace=wrap;rounded=0;" vertex="1" parent="WIyWlLk6GJQsqaUBKTNV-1">
          <mxGeometry x="580" y="162" width="60" height="30" as="geometry" />
        </mxCell>
        <mxCell id="pvwQ3aP5tafH-razuLtO-8" value="1" style="text;html=1;align=center;verticalAlign=middle;whiteSpace=wrap;rounded=0;" vertex="1" parent="WIyWlLk6GJQsqaUBKTNV-1">
          <mxGeometry x="696" y="314" width="60" height="30" as="geometry" />
        </mxCell>
        <mxCell id="pvwQ3aP5tafH-razuLtO-9" value="Compostion&lt;br&gt;Is-part-of" style="text;html=1;align=center;verticalAlign=middle;whiteSpace=wrap;rounded=0;" vertex="1" parent="WIyWlLk6GJQsqaUBKTNV-1">
          <mxGeometry x="640" y="300" width="60" height="30" as="geometry" />
        </mxCell>
        <mxCell id="pvwQ3aP5tafH-razuLtO-10" value="Compostion&lt;br&gt;Is-part-of" style="text;html=1;align=center;verticalAlign=middle;whiteSpace=wrap;rounded=0;" vertex="1" parent="WIyWlLk6GJQsqaUBKTNV-1">
          <mxGeometry x="531" y="215" width="60" height="30" as="geometry" />
        </mxCell>
        <mxCell id="pvwQ3aP5tafH-razuLtO-12" value="" style="endArrow=none;html=1;rounded=0;exitX=-0.005;exitY=0.022;exitDx=0;exitDy=0;exitPerimeter=0;" edge="1" parent="WIyWlLk6GJQsqaUBKTNV-1">
          <mxGeometry width="50" height="50" relative="1" as="geometry">
            <mxPoint x="640.3" y="398.65999999999997" as="sourcePoint" />
            <mxPoint x="781" y="398" as="targetPoint" />
          </mxGeometry>
        </mxCell>
        <mxCell id="pvwQ3aP5tafH-razuLtO-14" value="" style="endArrow=classic;html=1;rounded=0;entryX=0.429;entryY=1.111;entryDx=0;entryDy=0;entryPerimeter=0;exitX=0.5;exitY=0;exitDx=0;exitDy=0;" edge="1" parent="WIyWlLk6GJQsqaUBKTNV-1" source="erJbwYKWZJgMKCV-Vp8i-8" target="erJbwYKWZJgMKCV-Vp8i-15">
          <mxGeometry width="50" height="50" relative="1" as="geometry">
            <mxPoint x="480" y="570" as="sourcePoint" />
            <mxPoint x="550" y="520" as="targetPoint" />
          </mxGeometry>
        </mxCell>
        <mxCell id="pvwQ3aP5tafH-razuLtO-15" value="" style="group" vertex="1" connectable="0" parent="WIyWlLk6GJQsqaUBKTNV-1">
          <mxGeometry x="170" y="220" width="260" height="300" as="geometry" />
        </mxCell>
        <mxCell id="erJbwYKWZJgMKCV-Vp8i-0" value="Heizung" style="swimlane;fontStyle=0;childLayout=stackLayout;horizontal=1;startSize=30;horizontalStack=0;resizeParent=1;resizeParentMax=0;resizeLast=0;collapsible=1;marginBottom=0;whiteSpace=wrap;html=1;" parent="pvwQ3aP5tafH-razuLtO-15" vertex="1">
          <mxGeometry width="260" height="300" as="geometry" />
        </mxCell>
        <mxCell id="erJbwYKWZJgMKCV-Vp8i-1" value="- temperature: int" style="text;strokeColor=none;fillColor=none;align=left;verticalAlign=middle;spacingLeft=4;spacingRight=4;overflow=hidden;points=[[0,0.5],[1,0.5]];portConstraint=eastwest;rotatable=0;whiteSpace=wrap;html=1;" parent="erJbwYKWZJgMKCV-Vp8i-0" vertex="1">
          <mxGeometry y="30" width="260" height="30" as="geometry" />
        </mxCell>
        <mxCell id="erJbwYKWZJgMKCV-Vp8i-2" value="- min: int" style="text;strokeColor=none;fillColor=none;align=left;verticalAlign=middle;spacingLeft=4;spacingRight=4;overflow=hidden;points=[[0,0.5],[1,0.5]];portConstraint=eastwest;rotatable=0;whiteSpace=wrap;html=1;" parent="erJbwYKWZJgMKCV-Vp8i-0" vertex="1">
          <mxGeometry y="60" width="260" height="30" as="geometry" />
        </mxCell>
        <mxCell id="erJbwYKWZJgMKCV-Vp8i-3" value="- max: int" style="text;strokeColor=none;fillColor=none;align=left;verticalAlign=middle;spacingLeft=4;spacingRight=4;overflow=hidden;points=[[0,0.5],[1,0.5]];portConstraint=eastwest;rotatable=0;whiteSpace=wrap;html=1;" parent="erJbwYKWZJgMKCV-Vp8i-0" vertex="1">
          <mxGeometry y="90" width="260" height="30" as="geometry" />
        </mxCell>
        <mxCell id="erJbwYKWZJgMKCV-Vp8i-20" value="- increment: int" style="text;strokeColor=none;fillColor=none;align=left;verticalAlign=middle;spacingLeft=4;spacingRight=4;overflow=hidden;points=[[0,0.5],[1,0.5]];portConstraint=eastwest;rotatable=0;whiteSpace=wrap;html=1;" parent="erJbwYKWZJgMKCV-Vp8i-0" vertex="1">
          <mxGeometry y="120" width="260" height="30" as="geometry" />
        </mxCell>
        <mxCell id="erJbwYKWZJgMKCV-Vp8i-21" value="+ getTemperature(): int" style="text;strokeColor=none;fillColor=none;align=left;verticalAlign=middle;spacingLeft=4;spacingRight=4;overflow=hidden;points=[[0,0.5],[1,0.5]];portConstraint=eastwest;rotatable=0;whiteSpace=wrap;html=1;" parent="erJbwYKWZJgMKCV-Vp8i-0" vertex="1">
          <mxGeometry y="150" width="260" height="30" as="geometry" />
        </mxCell>
        <mxCell id="erJbwYKWZJgMKCV-Vp8i-24" value="+ setTemperature(temperature: int): void" style="text;strokeColor=none;fillColor=none;align=left;verticalAlign=middle;spacingLeft=4;spacingRight=4;overflow=hidden;points=[[0,0.5],[1,0.5]];portConstraint=eastwest;rotatable=0;whiteSpace=wrap;html=1;" parent="erJbwYKWZJgMKCV-Vp8i-0" vertex="1">
          <mxGeometry y="180" width="260" height="30" as="geometry" />
        </mxCell>
        <mxCell id="erJbwYKWZJgMKCV-Vp8i-25" value="+ Heizung(temperature: int, min: int, max: int)" style="text;strokeColor=none;fillColor=none;align=left;verticalAlign=middle;spacingLeft=4;spacingRight=4;overflow=hidden;points=[[0,0.5],[1,0.5]];portConstraint=eastwest;rotatable=0;whiteSpace=wrap;html=1;" parent="erJbwYKWZJgMKCV-Vp8i-0" vertex="1">
          <mxGeometry y="210" width="260" height="30" as="geometry" />
        </mxCell>
        <mxCell id="erJbwYKWZJgMKCV-Vp8i-27" value="+ colder(): void" style="text;strokeColor=none;fillColor=none;align=left;verticalAlign=middle;spacingLeft=4;spacingRight=4;overflow=hidden;points=[[0,0.5],[1,0.5]];portConstraint=eastwest;rotatable=0;whiteSpace=wrap;html=1;" parent="erJbwYKWZJgMKCV-Vp8i-0" vertex="1">
          <mxGeometry y="240" width="260" height="30" as="geometry" />
        </mxCell>
        <mxCell id="erJbwYKWZJgMKCV-Vp8i-28" value="+ warmer(): void" style="text;strokeColor=none;fillColor=none;align=left;verticalAlign=middle;spacingLeft=4;spacingRight=4;overflow=hidden;points=[[0,0.5],[1,0.5]];portConstraint=eastwest;rotatable=0;whiteSpace=wrap;html=1;" parent="erJbwYKWZJgMKCV-Vp8i-0" vertex="1">
          <mxGeometry y="270" width="260" height="30" as="geometry" />
        </mxCell>
        <mxCell id="erJbwYKWZJgMKCV-Vp8i-26" value="" style="endArrow=none;html=1;rounded=0;" parent="pvwQ3aP5tafH-razuLtO-15" edge="1">
          <mxGeometry width="50" height="50" relative="1" as="geometry">
            <mxPoint y="150" as="sourcePoint" />
            <mxPoint x="260" y="150" as="targetPoint" />
          </mxGeometry>
        </mxCell>
      </root>
    </mxGraphModel>
  </diagram>
</mxfile>
